# xmcd
#
# Track frame offsets: 
#        150
#        17353
#        41997
#        63557
#        84226
#        101187
#        120232
#        143606
#
# Disc length: 2156 seconds
#
# Revision: 0
# Processed by: cddbd v1.5.2PL0 Copyright (c) Steve Scherf et al.
# Submitted via: ExactAudioCopyFreeDBPlugin 1.0
#
DISCID=5f086a08
DTITLE=윤종신 - 行步2013
DYEAR=2013
DGENRE=Ballad
TTITLE0=9月
TTITLE1=배웅
TTITLE2=버려진 사람들을 위한 지침서
TTITLE3=시간
TTITLE4=거리에 서면
TTITLE5=고백을 앞두고
TTITLE6=아침
TTITLE7=희열이가 준 선물
EXTD=
EXTT0=
EXTT1=
EXTT2=
EXTT3=
EXTT4=
EXTT5=
EXTT6=
EXTT7=
PLAYORDER=
